<svg width="36" height="36" viewBox="0 0 36 36" fill="none" xmlns="http://www.w3.org/2000/svg">
<rect width="36" height="36" rx="2" fill="#0F0E0E"/>
<path d="M25.096 12.072V25.008C25.096 25.692 25.024 26.196 24.64 26.58C24.304 26.916 23.896 27.096 23.38 27.096C22.612 27.096 22.132 26.616 21.424 25.56L15.34 16.584V24.84C15.34 25.62 15.316 25.896 15.112 26.304C14.86 26.772 14.32 27.096 13.66 27.096C13 27.096 12.46 26.772 12.208 26.304C12.004 25.896 11.98 25.62 11.98 24.84V11.904C11.98 11.22 12.064 10.716 12.436 10.332C12.772 9.996 13.192 9.816 13.696 9.816C14.476 9.816 14.944 10.296 15.664 11.352L21.736 20.328V12.072C21.736 11.292 21.76 11.016 21.964 10.608C22.216 10.14 22.756 9.816 23.416 9.816C24.076 9.816 24.616 10.14 24.868 10.608C25.072 11.016 25.096 11.292 25.096 12.072Z" fill="#D1FF86"/>
</svg>
